<mxfile host="app.diagrams.net" modified="2024-02-08T11:10:33.299Z" agent="Mozilla/5.0 (X11; Linux x86_64; rv:122.0) Gecko/20100101 Firefox/122.0" version="23.1.2" etag="I-BV5dOpJjohAXhBvzFE" type="github">
  <diagram name="Page-1" id="Uue3LDzkWxHug2KmMdWC">
    <mxGraphModel>
      <root>
        <mxCell id="0" />
        <mxCell id="1" parent="0" />
      </root>
    </mxGraphModel>
  </diagram>
</mxfile>
